<svg width="320" height="60" viewBox="0 0 320 60" fill="none" xmlns="http://www.w3.org/2000/svg">
<path d="M18.6136 59.9091C14.9773 59.9091 11.767 58.9905 8.98295 57.1534C6.19886 55.2973 4.02083 52.6837 2.44886 49.3125C0.876894 45.9223 0.0909094 41.9167 0.0909094 37.2955C0.0909094 32.7121 0.876894 28.7348 2.44886 25.3636C4.02083 21.9924 6.20833 19.3883 9.01136 17.5511C11.8144 15.714 15.053 14.7955 18.7273 14.7955C21.5682 14.7955 23.8125 15.2689 25.4602 16.2159C27.1269 17.1439 28.3958 18.2045 29.267 19.3977C30.1572 20.572 30.8485 21.5379 31.3409 22.2955H31.9091V0.81818H38.6136V59H32.1364V52.2955H31.3409C30.8485 53.0909 30.1477 54.0947 29.2386 55.3068C28.3295 56.5 27.0322 57.5701 25.3466 58.517C23.661 59.4451 21.4167 59.9091 18.6136 59.9091ZM19.5227 53.8864C22.2121 53.8864 24.4848 53.1856 26.3409 51.7841C28.197 50.3636 29.608 48.4034 30.5739 45.9034C31.5398 43.3845 32.0227 40.4773 32.0227 37.1818C32.0227 33.9242 31.5492 31.0739 30.6023 28.6307C29.6553 26.1686 28.2538 24.2557 26.3977 22.892C24.5417 21.5095 22.25 20.8182 19.5227 20.8182C16.6818 20.8182 14.3144 21.5473 12.4205 23.0057C10.5455 24.4451 9.13447 26.4053 8.1875 28.8864C7.25947 31.3485 6.79545 34.1136 6.79545 37.1818C6.79545 40.2879 7.26894 43.1098 8.21591 45.6477C9.18182 48.1667 10.6023 50.1742 12.4773 51.6705C14.3712 53.1477 16.7197 53.8864 19.5227 53.8864ZM69.5511 59.9091C65.6117 59.9091 62.1553 58.9716 59.1818 57.0966C56.2273 55.2216 53.9167 52.5985 52.25 49.2273C50.6023 45.8561 49.7784 41.9167 49.7784 37.4091C49.7784 32.8636 50.6023 28.8958 52.25 25.5057C53.9167 22.1155 56.2273 19.483 59.1818 17.608C62.1553 15.733 65.6117 14.7955 69.5511 14.7955C73.4905 14.7955 76.9375 15.733 79.892 17.608C82.8655 19.483 85.1761 22.1155 86.8239 25.5057C88.4905 28.8958 89.3239 32.8636 89.3239 37.4091C89.3239 41.9167 88.4905 45.8561 86.8239 49.2273C85.1761 52.5985 82.8655 55.2216 79.892 57.0966C76.9375 58.9716 73.4905 59.9091 69.5511 59.9091ZM69.5511 53.8864C72.5436 53.8864 75.0057 53.1193 76.9375 51.5852C78.8693 50.0511 80.2992 48.0341 81.2273 45.5341C82.1553 43.0341 82.6193 40.3258 82.6193 37.4091C82.6193 34.4924 82.1553 31.7746 81.2273 29.2557C80.2992 26.7367 78.8693 24.7008 76.9375 23.1477C75.0057 21.5947 72.5436 20.8182 69.5511 20.8182C66.5587 20.8182 64.0966 21.5947 62.1648 23.1477C60.233 24.7008 58.803 26.7367 57.875 29.2557C56.947 31.7746 56.483 34.4924 56.483 37.4091C56.483 40.3258 56.947 43.0341 57.875 45.5341C58.803 48.0341 60.233 50.0511 62.1648 51.5852C64.0966 53.1193 66.5587 53.8864 69.5511 53.8864ZM99.5582 59V15.3636H106.036V22.1818H106.604C107.513 19.8523 108.981 18.0436 111.007 16.7557C113.034 15.4489 115.467 14.7955 118.308 14.7955C121.187 14.7955 123.583 15.4489 125.496 16.7557C127.428 18.0436 128.933 19.8523 130.013 22.1818H130.467C131.585 19.928 133.261 18.1383 135.496 16.8125C137.731 15.4678 140.411 14.7955 143.536 14.7955C147.437 14.7955 150.628 16.017 153.109 18.4602C155.59 20.8845 156.831 24.6629 156.831 29.7955V59H150.126V29.7955C150.126 26.5758 149.246 24.2746 147.484 22.892C145.723 21.5095 143.649 20.8182 141.263 20.8182C138.195 20.8182 135.818 21.7462 134.132 23.6023C132.446 25.4394 131.604 27.7689 131.604 30.5909V59H124.786V29.1136C124.786 26.6326 123.981 24.6345 122.371 23.1193C120.761 21.5852 118.687 20.8182 116.149 20.8182C114.407 20.8182 112.778 21.2822 111.263 22.2102C109.767 23.1383 108.554 24.4261 107.626 26.0739C106.717 27.7027 106.263 29.5871 106.263 31.7273V59H99.5582ZM175.794 32.75V59H169.089V15.3636H175.567V22.1818H176.135C177.158 19.9659 178.711 18.1856 180.794 16.8409C182.877 15.4773 185.567 14.7955 188.862 14.7955C191.817 14.7955 194.402 15.4015 196.618 16.6136C198.834 17.8068 200.557 19.625 201.788 22.0682C203.019 24.4924 203.635 27.5606 203.635 31.2727V59H196.93V31.7273C196.93 28.2992 196.04 25.6288 194.26 23.7159C192.48 21.7841 190.036 20.8182 186.93 20.8182C184.79 20.8182 182.877 21.2822 181.192 22.2102C179.525 23.1383 178.209 24.4924 177.243 26.2727C176.277 28.053 175.794 30.2121 175.794 32.75ZM243.386 41.1591V15.3636H250.091V59H243.386V51.6136H242.932C241.909 53.8295 240.318 55.714 238.159 57.267C236 58.8011 233.273 59.5682 229.977 59.5682C227.25 59.5682 224.826 58.9716 222.705 57.7784C220.583 56.5663 218.917 54.7481 217.705 52.3239C216.492 49.8807 215.886 46.803 215.886 43.0909V15.3636H222.591V42.6364C222.591 45.8182 223.481 48.3561 225.261 50.25C227.061 52.1439 229.352 53.0909 232.136 53.0909C233.803 53.0909 235.498 52.6648 237.222 51.8125C238.964 50.9602 240.422 49.6534 241.597 47.892C242.79 46.1307 243.386 43.8864 243.386 41.1591ZM262.371 59V15.3636H268.848V22.1818H269.416C270.325 19.8523 271.793 18.0436 273.82 16.7557C275.846 15.4489 278.28 14.7955 281.121 14.7955C284 14.7955 286.395 15.4489 288.308 16.7557C290.24 18.0436 291.746 19.8523 292.825 22.1818H293.28C294.397 19.928 296.073 18.1383 298.308 16.8125C300.543 15.4678 303.223 14.7955 306.348 14.7955C310.25 14.7955 313.441 16.017 315.922 18.4602C318.403 20.8845 319.643 24.6629 319.643 29.7955V59H312.939V29.7955C312.939 26.5758 312.058 24.2746 310.297 22.892C308.536 21.5095 306.462 20.8182 304.075 20.8182C301.007 20.8182 298.63 21.7462 296.945 23.6023C295.259 25.4394 294.416 27.7689 294.416 30.5909V59H287.598V29.1136C287.598 26.6326 286.793 24.6345 285.183 23.1193C283.573 21.5852 281.5 20.8182 278.962 20.8182C277.219 20.8182 275.59 21.2822 274.075 22.2102C272.579 23.1383 271.367 24.4261 270.439 26.0739C269.53 27.7027 269.075 29.5871 269.075 31.7273V59H262.371Z" fill="url(#paint0_linear_34_2)"/>
<defs>
<linearGradient id="paint0_linear_34_2" x1="161" y1="-19" x2="161" y2="78" gradientUnits="userSpaceOnUse">
<stop offset="0.384615" stop-color="#248CC0" stop-opacity="0.8"/>
<stop offset="0.9999" stop-color="#11425A" stop-opacity="0.8"/>
<stop offset="1" stop-color="#1A678D" stop-opacity="0.8"/>
</linearGradient>
</defs>
</svg>
